<svg xmlns="http://www.w3.org/2000/svg" xmlns:xlink="http://www.w3.org/1999/xlink" version="1.1" x="0px" y="0px" viewBox="0 0 100 125" enable-background="new 0 0 100 100" xml:space="preserve"><path fill="#000000" d="M92,29.969V18c0-1.104-0.896-2-2-2H10c-1.104,0-2,0.896-2,2v11.969L6.002,79.92  c-0.044,1.09,0.793,2.013,1.881,2.076l34,2c0.767,0.042,1.515-0.367,1.882-1.055L50,71.25l6.235,11.691  C56.584,83.596,57.265,84,58,84c0.039,0,0.078-0.001,0.117-0.004l34-2c1.088-0.063,1.925-0.986,1.881-2.076L92,29.969z M12,20h76v8  H12V20z M40,51V32h20v19c0,5-5,9.535-10,9.535V60.5C44.486,60.5,40,56,40,51z M59.162,79.928l-7.397-13.869  C51.417,65.407,50.738,65,50,65s-1.417,0.407-1.765,1.059l-7.397,13.869l-30.761-1.809L11.921,32H36v19c0,7,6.28,13.5,14,13.5v0.035  C58,64.535,64,58,64,51V32h24.079l1.844,46.119L59.162,79.928z"/><text x="0" y="115" fill="#000000" font-size="5px" font-weight="bold" font-family="'Helvetica Neue', Helvetica, Arial-Unicode, Arial, Sans-serif">Created by Ollie Khakwani</text><text x="0" y="120" fill="#000000" font-size="5px" font-weight="bold" font-family="'Helvetica Neue', Helvetica, Arial-Unicode, Arial, Sans-serif">from the Noun Project</text></svg>