<?xml version="1.0" encoding="UTF-8" standalone="no" ?>
<!DOCTYPE svg PUBLIC "-//W3C//DTD SVG 1.1//EN" "http://www.w3.org/Graphics/SVG/1.1/DTD/svg11.dtd">
<svg xmlns="http://www.w3.org/2000/svg" xmlns:xlink="http://www.w3.org/1999/xlink" version="1.1" width="512" height="512" viewBox="0 0 512 512" xml:space="preserve">
<desc>Created with Fabric.js 5.2.4</desc>
<defs>
</defs>
<g transform="matrix(1 0 0 1 256 256)" id="9017addd-e6ec-4378-a26f-92d251143cf5"  >
<rect style="stroke: none; stroke-width: 1; stroke-dasharray: none; stroke-linecap: butt; stroke-dashoffset: 0; stroke-linejoin: miter; stroke-miterlimit: 4; fill: rgb(255,255,255); fill-rule: nonzero; opacity: 1; visibility: hidden;" vector-effect="non-scaling-stroke"  x="-256" y="-256" rx="0" ry="0" width="512" height="512" />
</g>
<g transform="matrix(Infinity NaN NaN Infinity 0 0)" id="558fae41-6b89-41a4-980f-0e52e37bab8e"  >
</g>
<g transform="matrix(5.15 0 0 5.15 241 366)"  >
<g style="" vector-effect="non-scaling-stroke"   >
		<g transform="matrix(1 0 0 1 11.56 -31.63)"  >
<path style="stroke: none; stroke-width: 1; stroke-dasharray: none; stroke-linecap: butt; stroke-dashoffset: 0; stroke-linejoin: miter; stroke-miterlimit: 4; fill: rgb(0,0,0); fill-rule: nonzero; opacity: 1;" vector-effect="non-scaling-stroke"  transform=" translate(-60.06, -41)" d="M 94.2663045 25.6294278 C 94.9059184 25.1029436 95.8512276 25.1946534 96.3777118 25.8342672 C 96.904196 26.4738811 96.8124862 27.4191904 96.1728723 27.9456745 L 61.2213033 56.7152943 C 60.6675189 57.1711298 59.8685198 57.1711298 59.3147354 56.7152943 L 23.9374516 27.5952568 C 23.2978377 27.0687726 23.206128 26.1234633 23.7326122 25.4838495 C 24.2590963 24.8442356 25.2044056 24.7525258 25.8440195 25.27901 L 60.2680193 53.6143727 L 94.2663045 25.6294278 Z" stroke-linecap="round" />
</g>
		<g transform="matrix(1 0 0 1 -9.38 -10.29)"  >
<path style="stroke: none; stroke-width: 1; stroke-dasharray: none; stroke-linecap: butt; stroke-dashoffset: 0; stroke-linejoin: miter; stroke-miterlimit: 4; fill: rgb(0,0,0); fill-rule: nonzero; opacity: 1;" vector-effect="non-scaling-stroke"  transform=" translate(-39.12, -62.33)" d="M 24.9326084 77.0677097 L 24.9326084 74.0677097 C 24.6174737 74.0677097 24.512228 74.1125976 24.400253 74.1806251 C 24.4607323 74.1438824 24.5672055 74.0685382 24.7087127 73.9594111 C 25.0389942 73.7047057 25.5107521 73.305007 26.1155917 72.7659663 C 27.3557364 71.6607335 29.1319395 69.9911325 31.4391251 67.7614075 C 36.0707552 63.285278 42.8295816 56.5642982 51.7128451 47.601053 L 53.843651 49.7128451 C 44.9464959 58.6901071 38.1741731 65.4245076 33.5239234 69.9186316 C 27.729116 75.5188863 25.9912331 77.0677097 24.9326084 77.0677097 Z" stroke-linecap="round" />
</g>
		<g transform="matrix(1 0 0 1 32.92 -9.93)"  >
<path style="stroke: none; stroke-width: 1; stroke-dasharray: none; stroke-linecap: butt; stroke-dashoffset: 0; stroke-linejoin: miter; stroke-miterlimit: 4; fill: rgb(0,0,0); fill-rule: nonzero; opacity: 1;" vector-effect="non-scaling-stroke"  transform=" translate(-81.42, -62.7)" d="M 95.4163082 74.0327937 C 95.2992758 73.9605 95.1748155 73.9109971 94.8620148 73.9109971 L 94.8620148 75.4109971 L 93.831194 76.5006798 L 66.9691792 51.0896827 C 65.5208773 49.7196144 67.5668989 47.5429511 69.0238765 48.9037898 C 76.2211596 55.6261586 80.8554176 60.0775709 88.8510197 67.8581736 C 91.7416977 70.6711221 92.8659486 71.7560865 93.8565075 72.6777509 C 94.4332836 73.2144116 94.8612805 73.5952626 95.1573738 73.8355543 C 95.2535402 73.9135973 95.3307036 73.9725671 95.3843225 74.0104885 L 95.4163082 74.0327937 Z M 94.8620148 76.9109971 C 93.8295661 76.9109971 94.3490305 77.3943322 86.7588031 70.0082038 C 78.7767406 62.2407766 74.1549719 57.8013608 66.9761235 51.0962102 L 69.0308208 48.9103173 L 95.8928356 74.3213143 C 96.8782878 75.2535349 96.2185365 76.9109971 94.8620148 76.9109971 Z" stroke-linecap="round" />
</g>
		<g transform="matrix(1 0 0 1 -37.11 -22.63)"  >
<path style="stroke: none; stroke-width: 1; stroke-dasharray: none; stroke-linecap: butt; stroke-dashoffset: 0; stroke-linejoin: miter; stroke-miterlimit: 4; fill: rgb(0,0,0); fill-rule: nonzero; opacity: 1;" vector-effect="non-scaling-stroke"  transform=" translate(-11.39, -50)" d="M 4.6061344 51.5 C 3.84572393 51.5 3.22928944 50.8284271 3.22928944 50 C 3.22928944 49.1715729 3.84572393 48.5 4.6061344 48.5 L 18.16412 48.5 C 18.9245305 48.5 19.540965 49.1715729 19.540965 50 C 19.540965 50.8284271 18.9245305 51.5 18.16412 51.5 L 4.6061344 51.5 Z" stroke-linecap="round" />
</g>
		<g transform="matrix(1 0 0 1 -34.47 -15.13)"  >
<path style="stroke: none; stroke-width: 1; stroke-dasharray: none; stroke-linecap: butt; stroke-dashoffset: 0; stroke-linejoin: miter; stroke-miterlimit: 4; fill: rgb(0,0,0); fill-rule: nonzero; opacity: 1;" vector-effect="non-scaling-stroke"  transform=" translate(-14.03, -57.5)" d="M 9.82655886 59 C 9.06614839 59 8.4497139 58.3284271 8.4497139 57.5 C 8.4497139 56.6715729 9.06614839 56 9.82655886 56 L 18.2406114 56 C 19.0010219 56 19.6174564 56.6715729 19.6174564 57.5 C 19.6174564 58.3284271 19.0010219 59 18.2406114 59 L 9.82655886 59 Z" stroke-linecap="round" />
</g>
		<g transform="matrix(1 0 0 1 -34.47 -30.13)"  >
<path style="stroke: none; stroke-width: 1; stroke-dasharray: none; stroke-linecap: butt; stroke-dashoffset: 0; stroke-linejoin: miter; stroke-miterlimit: 4; fill: rgb(0,0,0); fill-rule: nonzero; opacity: 1;" vector-effect="non-scaling-stroke"  transform=" translate(-14.03, -42.5)" d="M 9.82655886 44 C 9.06614839 44 8.4497139 43.3284271 8.4497139 42.5 C 8.4497139 41.6715729 9.06614839 41 9.82655886 41 L 18.2406114 41 C 19.0010219 41 19.6174564 41.6715729 19.6174564 42.5 C 19.6174564 43.3284271 19.0010219 44 18.2406114 44 L 9.82655886 44 Z" stroke-linecap="round" />
</g>
		<g transform="matrix(1 0 0 1 11.5 -21.63)"  >
<path style="stroke: none; stroke-width: 1; stroke-dasharray: none; stroke-linecap: butt; stroke-dashoffset: 0; stroke-linejoin: miter; stroke-miterlimit: 4; fill: rgb(0,0,0); fill-rule: nonzero; opacity: 1;" vector-effect="non-scaling-stroke"  transform=" translate(-60, -51)" d="M 26 27 L 26 75 L 94 75 L 94 27 L 26 27 Z M 26 24 L 94 24 C 95.6568542 24 97 25.3431458 97 27 L 97 75 C 97 76.6568542 95.6568542 78 94 78 L 26 78 C 24.3431458 78 23 76.6568542 23 75 L 23 27 C 23 25.3431458 24.3431458 24 26 24 Z" stroke-linecap="round" />
</g>
		<g transform="matrix(1 0 0 1 -20.3 40.8)" style=""  >
		<text xml:space="preserve" font-family="'Helvetica Neue', Helvetica, Arial-Unicode, Arial, Sans-serif" font-size="5" font-style="normal" font-weight="bold" style="stroke: none; stroke-width: 1; stroke-dasharray: none; stroke-linecap: butt; stroke-dashoffset: 0; stroke-linejoin: miter; stroke-miterlimit: 4; fill: rgb(0,0,0); fill-rule: nonzero; opacity: 1; white-space: pre;" ><tspan x="-28.2" y="1.57" >Created by EchoEternal</tspan></text>
</g>
		<g transform="matrix(1 0 0 1 -22.25 45.8)" style=""  >
		<text xml:space="preserve" font-family="'Helvetica Neue', Helvetica, Arial-Unicode, Arial, Sans-serif" font-size="5" font-style="normal" font-weight="bold" style="stroke: none; stroke-width: 1; stroke-dasharray: none; stroke-linecap: butt; stroke-dashoffset: 0; stroke-linejoin: miter; stroke-miterlimit: 4; fill: rgb(0,0,0); fill-rule: nonzero; opacity: 1; white-space: pre;" ><tspan x="-26.25" y="1.57" >from the Noun Project</tspan></text>
</g>
</g>
</g>
</svg>